<?xml version="1.0" encoding="iso-8859-1"?>
<!-- Generator: Adobe Illustrator 19.0.0, SVG Export Plug-In . SVG Version: 6.00 Build 0)  -->
<svg version="1.1" id="Layer_1" xmlns="http://www.w3.org/2000/svg" xmlns:xlink="http://www.w3.org/1999/xlink" x="0px" y="0px"
	 viewBox="0 0 512 512" style="enable-background:new 0 0 512 512;" xml:space="preserve">
<circle style="fill:#005C83;" cx="256" cy="256" r="256"/>
<path style="fill:#00263F;" d="M508.93,295.712l-57.54-57.541l-31.684,19.673l-205.35-205.35l101.579,187.99H158.887L52.579,318.592
	L190.55,456.563l-5.437,2.943l60.654,52.274c3.396,0.133,6.803,0.221,10.231,0.221C383.878,512,489.848,418.237,508.93,295.712z"/>
<polygon style="fill:#FF81AE;" points="376.508,226.759 214.356,52.495 185.115,52.495 230.305,226.759 "/>
<polygon style="fill:#FF3F84;" points="376.508,285.241 214.356,459.504 185.115,459.504 230.305,285.241 "/>
<path style="fill:#FFFFFF;" d="M83.875,256l-31.296,62.592h31.296l31.296-31.296l244.789,13.464
	c22.881,1.431,45.732-3.217,66.238-13.469l20.096-10.047c17.505-8.752,17.505-33.733,0-42.486l-20.096-10.047
	c-20.504-10.252-43.356-14.9-66.238-13.469l-244.789,13.465l-31.296-31.296H52.579L83.875,256z"/>
<path style="fill:#E0E0E0;" d="M83.301,254.85l0.574,1.15l-31.296,62.592h31.296l31.296-31.296l244.789,13.464
	c22.881,1.431,45.732-3.217,66.238-13.469l20.096-10.047c9.151-4.575,13.507-13.584,13.091-22.392H83.301V254.85z"/>
<path style="fill:#B9EAFF;" d="M397.331,285.241c6.804-18.899,6.804-39.581,0-58.482c4.446-1.602,8.892-3.201,13.34-4.803
	c7.921,22.004,7.921,46.082,0,68.086C406.225,288.442,401.779,286.841,397.331,285.241z"/>
<path style="fill:#35CCFF;" d="M402.41,254.85c0.136,10.278-1.545,20.575-5.079,30.391c4.446,1.602,8.892,3.201,13.34,4.803
	c4.093-11.367,6.053-23.29,5.916-35.194L402.41,254.85L402.41,254.85z"/>
<g>
</g>
<g>
</g>
<g>
</g>
<g>
</g>
<g>
</g>
<g>
</g>
<g>
</g>
<g>
</g>
<g>
</g>
<g>
</g>
<g>
</g>
<g>
</g>
<g>
</g>
<g>
</g>
<g>
</g>
</svg>
