<svg height="512" viewBox="0 0 64 64" width="512" xmlns="http://www.w3.org/2000/svg"><path d="m59 57a2.006 2.006 0 0 1 2 2 2.015 2.015 0 0 1 -2 2h-54a2.006 2.006 0 0 1 -2-2 2.015 2.015 0 0 1 2-2z" fill="#ff7956"/><path d="m58.36 20.06a1.994 1.994 0 0 1 .79 2.63l-.2.42a2.007 2.007 0 0 1 -2.79.84l-2.16-1.23-21.01-12.01a2 2 0 0 0 -1.98 0l-21.01 12.01-2.16 1.23a2.007 2.007 0 0 1 -2.79-.84l-.2-.42a1.994 1.994 0 0 1 .79-2.63l25.37-14.49a2 2 0 0 1 1.98 0l13 7.42 8.01 4.58z" fill="#ff7956"/><path d="m54 3a2.006 2.006 0 0 1 2 2 2.015 2.015 0 0 1 -2 2h-8.01a2 2 0 0 1 -1.99-2 2.015 2.015 0 0 1 2-2z" fill="#cc7400"/><path d="m54 22.72v34.28h-44v-34.28l21.01-12.01a2 2 0 0 1 1.98 0zm-6 12.28a16 16 0 1 0 -16 16 16 16 0 0 0 16-16z" fill="#46f8ff"/><path d="m54 7v10.57l-8.01-4.58v-5.99h.01z" fill="#ff9811"/><path d="m32 19a16 16 0 1 1 -16 16 16 16 0 0 1 16-16zm10 21a4 4 0 1 0 -4 4 4 4 0 0 0 4-4zm-11-11a4 4 0 1 0 -4 4 4 4 0 0 0 4-4z" fill="#ffde55"/><circle cx="38" cy="40" fill="#d80027" r="4"/><circle cx="27" cy="29" fill="#d80027" r="4"/><path d="m59 56h-4v-31.562l.668.381a3.006 3.006 0 0 0 1.491.394 3 3 0 0 0 2.68-1.656l.21-.417a3 3 0 0 0 -1.2-3.947l-3.849-2.202v-9.175a2.993 2.993 0 0 0 -1-5.816h-8a2.993 2.993 0 0 0 -1.015 5.811v3.457l-11.497-6.568a3.013 3.013 0 0 0 -2.976 0l-25.366 14.493a3 3 0 0 0 -1.194 3.948l.208.415a3 3 0 0 0 4.172 1.263l.668-.381v31.562h-4a3 3 0 0 0 0 6h54a3 3 0 0 0 0-6zm-13-52h8a1 1 0 0 1 0 2h-8a1 1 0 0 1 0-2zm.985 4h6.015v7.848l-6.015-3.437zm-39.645 15.083a1 1 0 0 1 -1.392-.422l-.208-.416a1 1 0 0 1 .4-1.315l25.36-14.494a1 1 0 0 1 .992 0l25.365 14.5a1 1 0 0 1 .4 1.314l-.21.418a1 1 0 0 1 -1.391.421l-23.168-13.247a3.007 3.007 0 0 0 -2.976 0zm3.66.217 20.5-11.722a1 1 0 0 1 .992 0l20.508 11.722v32.7h-42zm48 36.7h-54a1 1 0 0 1 0-2h54a1 1 0 0 1 0 2z"/><path d="m13 52h4v2h-4z"/><path d="m47 52h4v2h-4z"/><path d="m19 52h2v2h-2z"/><path d="m43 52h2v2h-2z"/><path d="m49 35a17 17 0 1 0 -17 17 17.019 17.019 0 0 0 17-17zm-17 15a15 15 0 1 1 15-15 15.017 15.017 0 0 1 -15 15z"/><path d="m19 34h26v2h-26z" transform="matrix(.707 -.707 .707 .707 -15.376 32.879)"/><path d="m27 34a5 5 0 1 0 -5-5 5.006 5.006 0 0 0 5 5zm0-8a3 3 0 1 1 -3 3 3 3 0 0 1 3-3z"/><path d="m38 35a5 5 0 1 0 5 5 5.006 5.006 0 0 0 -5-5zm0 8a3 3 0 1 1 3-3 3 3 0 0 1 -3 3z"/></svg>