<?xml version="1.0"?>
<svg xmlns="http://www.w3.org/2000/svg" viewBox="0 0 64 64" width="512" height="512"><g id="Setting-3" data-name="Setting"><path d="M48.47,23.65a12.589,12.589,0,0,1-1.07,2.6l2.74,3.65L45.9,34.14,42.25,31.4a12.589,12.589,0,0,1-2.6,1.07L39,37H33l-.65-4.53a12.589,12.589,0,0,1-2.6-1.07L26.1,34.14,21.86,29.9l2.74-3.65a12.589,12.589,0,0,1-1.07-2.6L19,23V17l4.53-.65a12.589,12.589,0,0,1,1.07-2.6L21.86,10.1,26.1,5.86,29.75,8.6a12.589,12.589,0,0,1,2.6-1.07L33,3h6l.65,4.53a12.589,12.589,0,0,1,2.6,1.07L45.9,5.86l4.24,4.24L47.4,13.75a12.589,12.589,0,0,1,1.07,2.6L53,17v6Z" style="fill:#ffa733"/><rect x="6.153" y="46.208" width="8.004" height="14.005" transform="translate(-17.587 6.682) rotate(-20.001)" style="fill:#5aaae7"/><polygon points="23.48 54.74 24.17 56.62 16.65 59.36 16.31 58.42 11.52 45.26 11.18 44.32 18.69 41.59 19.38 43.47 23.48 54.74" style="fill:#3d9ae2"/><path d="M42.86,45.56l7.19-2.61a2.925,2.925,0,0,1,2.29.1,3,3,0,0,1-.24,5.53l-17.85,6.5-2.82,1.03-6.07-2.05-1.88.68-4.1-11.27,7.47-2.72,2.33.41,11.26,1.99a3,3,0,0,1,2.3,1.93A2.594,2.594,0,0,1,42.86,45.56Z" style="fill:#ffdaaa"/><circle cx="36" cy="20" r="7" style="fill:#ff6243"/><path d="M43.86,46.78a4.01,4.01,0,0,1-4.64,3.26L28.947,48.234a1,1,0,0,1-.812-1.161h0a1,1,0,0,1,1.159-.81L39.57,48.07a2.012,2.012,0,0,0,2.32-1.62,1.72,1.72,0,0,0-.01-.68.375.375,0,0,1-.01-.1,1.637,1.637,0,0,0-.07-.25,2,2,0,0,0-1.54-1.29L26.94,41.78l-2.989,1.088a1,1,0,0,1-1.282-.6h0a1,1,0,0,1,.6-1.279L26.51,39.81a1.021,1.021,0,0,1,.531-.046l13.569,2.4a4.029,4.029,0,0,1,3.07,2.57,4.286,4.286,0,0,1,.17.67A3.992,3.992,0,0,1,43.86,46.78Z" style="fill:#ffc477"/><rect x="35" y="6" width="2" height="2" style="fill:#ee8700"/><rect x="25.808" y="9.808" width="2" height="2" transform="translate(0.21 22.121) rotate(-45)" style="fill:#ee8700"/><rect x="25.808" y="28.192" width="2" height="2" transform="translate(-12.79 27.506) rotate(-45)" style="fill:#ee8700"/><rect x="35" y="32" width="2" height="2" style="fill:#ee8700"/><rect x="44.192" y="28.192" width="2" height="2" transform="translate(-7.406 40.506) rotate(-45)" style="fill:#ee8700"/><rect x="44.192" y="9.808" width="2" height="2" transform="translate(5.594 35.121) rotate(-45)" style="fill:#ee8700"/><rect x="22" y="19" width="2" height="2" style="fill:#ee8700"/><rect x="48" y="19" width="2" height="2" style="fill:#ee8700"/></g></svg>
