<svg height="464pt" viewBox="0 -11 464 463" width="464pt" xmlns="http://www.w3.org/2000/svg"><path d="m232 24.5h32v160h-32zm0 0" fill="#ffd782"/><path d="m261.152344 169.085938c-3.613282-6.027344-10.125-9.714844-17.152344-9.714844s-13.539062 3.6875-17.152344 9.714844l-30.847656 68.15625-6.28125-13.878907c-2.890625-4.820312-8.097656-7.765625-13.71875-7.765625s-10.828125 2.945313-13.71875 7.765625l-98.28125 217.136719h320zm0 0" fill="#55b56a"/><path d="m144 96.5c0 26.507812-21.492188 48-48 48s-48-21.492188-48-48 21.492188-48 48-48 48 21.492188 48 48zm0 0" fill="#f9bf5a"/><path d="m338.28125 223.363281-98.28125 217.136719h224l-98.28125-217.136719c-2.890625-4.820312-8.097656-7.765625-13.71875-7.765625s-10.828125 2.945313-13.71875 7.765625zm0 0" fill="#8ec13f"/><path d="m76.910156 270.578125-76.910156 169.921875h175.296875l-76.898437-169.921875c-2.257813-3.777344-6.339844-6.089844-10.742188-6.089844s-8.484375 2.3125-10.746094 6.089844zm0 0" fill="#8ec13f"/><path d="m324 360.5c16.976562 0 31.199219-14.398438 34.96875-33.710938 15.15625 13.816407 38.636719 12.765626 52.496094-2.351562l-45.746094-101.074219c-2.890625-4.820312-8.097656-7.765625-13.71875-7.765625s-10.828125 2.945313-13.71875 7.765625l-48.433594 107c3.28125 16.601563 17.273438 28.945313 34.152344 30.136719zm0 0" fill="#cfdfe8"/><path d="m98.398438 270.578125c-2.261719-3.769531-6.335938-6.078125-10.734376-6.078125-4.398437 0-8.472656 2.308594-10.734374 6.078125l-37.144532 82.019531c12.414063 13.1875 33.117188 13.964844 46.488282 1.742188 3.398437 17.289062 16.125 30.160156 31.328124 30.160156 10.5625-.390625 20.175782-6.222656 25.398438-15.414062zm0 0" fill="#cfdfe8"/><g fill="#e97424"><path d="m264 102.722656c28 0 28 17.777344 56 17.777344s28-17.777344 56-17.777344v-62.222656c-28 0-28 17.777344-56 17.777344s-28-17.777344-56-17.777344zm0 0"/><path d="m96 192.5c-4.417969 0-8-3.582031-8-8v-8c0-4.417969 3.582031-8 8-8s8 3.582031 8 8v8c0 4.417969-3.582031 8-8 8zm0 0"/><path d="m96 24.5c-4.417969 0-8-3.582031-8-8v-8c0-4.417969 3.582031-8 8-8s8 3.582031 8 8v8c0 4.417969-3.582031 8-8 8zm0 0"/><path d="m184 104.5h-8c-4.417969 0-8-3.582031-8-8s3.582031-8 8-8h8c4.417969 0 8 3.582031 8 8s-3.582031 8-8 8zm0 0"/><path d="m16 104.5h-8c-4.417969 0-8-3.582031-8-8s3.582031-8 8-8h8c4.417969 0 8 3.582031 8 8s-3.582031 8-8 8zm0 0"/><path d="m40 48.5c-2.121094 0-4.15625-.84375-5.65625-2.34375l-8-8c-2.078125-2.007812-2.914062-4.984375-2.179688-7.78125.730469-2.796875 2.914063-4.980469 5.710938-5.710938 2.796875-.734374 5.773438.101563 7.78125 2.179688l8 8c2.285156 2.289062 2.972656 5.730469 1.734375 8.71875s-4.15625 4.9375-7.390625 4.9375zm0 0"/><path d="m152 48.5c-3.234375 0-6.152344-1.949219-7.390625-4.9375s-.550781-6.429688 1.734375-8.71875l8-8c2.007812-2.078125 4.984375-2.914062 7.78125-2.179688 2.796875.730469 4.980469 2.914063 5.710938 5.710938.734374 2.796875-.101563 5.773438-2.179688 7.78125l-8 8c-1.5 1.5-3.535156 2.34375-5.65625 2.34375zm0 0"/><path d="m32 168.5c-3.234375 0-6.152344-1.949219-7.390625-4.9375s-.550781-6.429688 1.734375-8.71875l8-8c3.140625-3.03125 8.128906-2.988281 11.214844.097656 3.085937 3.085938 3.128906 8.074219.097656 11.214844l-8 8c-1.5 1.5-3.535156 2.34375-5.65625 2.34375zm0 0"/><path d="m160 168.5c-2.121094 0-4.15625-.84375-5.65625-2.34375l-8-8c-3.03125-3.140625-2.988281-8.128906.097656-11.214844 3.085938-3.085937 8.074219-3.128906 11.214844-.097656l8 8c2.285156 2.289062 2.972656 5.730469 1.734375 8.71875s-4.15625 4.9375-7.390625 4.9375zm0 0"/></g></svg>