<svg height="461pt" viewBox="-32 0 461 461.44139" width="461pt" xmlns="http://www.w3.org/2000/svg"><path d="m96.21875 0v96h-96v304h168v-400zm0 0" fill="#83d8f4"/><path d="m336.21875 399.441406v-399.441406h-168v400zm0 0" fill="#91dcf5"/><path d="m96.21875 0-96 96h96zm0 0" fill="#00aeef"/><g fill="#f1f2f2"><path d="m64.21875 152h208c4.421875 0 8-3.582031 8-8s-3.578125-8-8-8h-208c-4.417969 0-8 3.582031-8 8s3.582031 8 8 8zm0 0"/><path d="m64.21875 200h208c4.421875 0 8-3.582031 8-8s-3.578125-8-8-8h-208c-4.417969 0-8 3.582031-8 8s3.582031 8 8 8zm0 0"/><path d="m120.21875 232h-56c-4.417969 0-8 3.582031-8 8s3.582031 8 8 8h56c4.421875 0 8-3.582031 8-8s-3.578125-8-8-8zm0 0"/></g><path d="m352.019531 415.800781-28.277343 28.277344 5.597656 5.601563c7.484375 7.527343 17.664062 11.761718 28.28125 11.761718 10.617187 0 20.792968-4.234375 28.28125-11.761718zm0 0" fill="#d1d3d4"/><path d="m385.902344 449.679688c7.527344-7.484376 11.757812-17.664063 11.757812-28.28125 0-10.613282-4.230468-20.792969-11.757812-28.277344l-5.601563-5.601563-28.28125 28.28125zm0 0" fill="#dbddde"/><path d="m244.539062 251.679688-73.597656-16.960938 45.277344 45.28125zm0 0" fill="#96959c"/><path d="m170.941406 234.71875 16.960938 73.601562 28.316406-28.320312zm0 0" fill="#898890"/><path d="m352.019531 415.800781 28.28125-28.28125-44.082031-44.078125-91.679688-91.761718-28.320312 28.320312zm0 0" fill="#ff633b"/><path d="m216.21875 280-28.316406 28.320312 91.757812 91.679688 44.082032 44.078125 28.277343-28.277344zm0 0" fill="#ff5023"/></svg>